<svg width="114" height="30" viewBox="0 0 114 30" fill="none" xmlns="http://www.w3.org/2000/svg">
<g id="logo">
<path id="Vector" d="M26.1599 10.5C26.4685 10.5 26.5714 10.6114 26.5714 10.9114V17.7H30.0599C30.3599 17.7 30.4714 17.8114 30.4714 18.1114V18.7114C30.4714 19.0114 30.3599 19.1229 30.0599 19.1229H25.4657C25.1657 19.1229 25.0457 19.0114 25.0457 18.7114V10.9114C25.0457 10.6114 25.1657 10.5 25.4657 10.5H26.1599Z" fill="#DAC5A7"/>
<path id="Vector_2" d="M33.5143 13.4915C33.5143 11.5115 34.7657 10.3201 36.9429 10.3201C39.12 10.3201 40.3714 11.5115 40.3714 13.4915V16.1315C40.3714 18.1115 39.1114 19.3029 36.9429 19.3029C34.7743 19.3029 33.5143 18.1115 33.5143 16.1315V13.4915ZM38.9314 13.4915C38.9314 12.3772 38.2371 11.7772 36.9857 11.7772C35.7343 11.7772 35.0486 12.3858 35.0486 13.4915V16.1486C35.0486 17.2715 35.7343 17.8629 36.9857 17.8629C38.2371 17.8629 38.9314 17.2458 38.9314 16.1486V13.4915Z" fill="#DAC5A7"/>
<path id="Vector_3" d="M50.58 14.3999C50.9143 14.3999 50.9915 14.5114 50.9915 14.8114V16.4399C51.0005 16.8235 50.9237 17.2043 50.7665 17.5543C50.6092 17.9044 50.3757 18.2147 50.0829 18.4628C49.3558 19.0418 48.439 19.329 47.5115 19.2685C45.2915 19.2685 44.0829 18.0771 44.0829 16.0971V13.4399C44.0829 11.4856 45.3343 10.2856 47.5115 10.2856C49.2257 10.2856 50.34 10.9628 50.8115 12.3171C50.8379 12.368 50.852 12.4243 50.8528 12.4816C50.8535 12.5389 50.8409 12.5956 50.816 12.6472C50.7911 12.6988 50.7544 12.7438 50.7089 12.7788C50.6635 12.8137 50.6105 12.8376 50.5543 12.8485L49.8857 13.0799C49.5943 13.1828 49.4743 13.1228 49.3715 12.8228C49.2294 12.4567 48.9695 12.1483 48.6326 11.9465C48.2957 11.7448 47.9013 11.6609 47.5115 11.7085C46.2515 11.7085 45.5657 12.3171 45.5657 13.4228V16.1485C45.5657 17.2714 46.26 17.8628 47.5115 17.8628C48.7629 17.8628 49.5343 17.2885 49.5343 16.4485V15.8142H47.6743C47.3657 15.8142 47.2543 15.6942 47.2543 15.3942V14.8114C47.2543 14.5114 47.3657 14.3999 47.6743 14.3999H50.58Z" fill="#DAC5A7"/>
<path id="Vector_4" d="M54.5314 13.4915C54.5314 11.5115 55.7828 10.3201 57.9599 10.3201C60.1371 10.3201 61.3885 11.5115 61.3885 13.4915V16.1315C61.3885 18.1115 60.1285 19.3029 57.9599 19.3029C55.7914 19.3029 54.5314 18.1115 54.5314 16.1315V13.4915ZM59.9399 13.4915C59.9399 12.3772 59.2457 11.7772 58.0028 11.7772C56.7599 11.7772 56.0571 12.3858 56.0571 13.4915V16.1486C56.0571 17.2715 56.7514 17.8629 58.0028 17.8629C59.2542 17.8629 59.9399 17.2458 59.9399 16.1486V13.4915Z" fill="#DAC5A7"/>
<path id="Vector_5" d="M65.4258 10.7486C65.4258 10.56 65.4858 10.5 65.6744 10.5H66.0686C66.2572 10.5 66.3001 10.56 66.3001 10.7486V18.8743C66.3001 19.0629 66.3001 19.1229 66.0686 19.1229H65.6744C65.4858 19.1229 65.4258 19.0629 65.4258 18.8743V10.7486Z" fill="#DAC5A7"/>
<path id="Vector_6" d="M74.1086 10.5C74.8224 10.5 75.5069 10.7835 76.0117 11.2883C76.5164 11.793 76.8 12.4776 76.8 13.1914C76.8 13.9053 76.5164 14.5899 76.0117 15.0945C75.5069 15.5993 74.8224 15.8829 74.1086 15.8829H71.5371V18.8743C71.5371 19.0629 71.4943 19.1229 71.3143 19.1229H70.9114C70.7314 19.1229 70.6628 19.0629 70.6628 18.8743V10.7486C70.6628 10.56 70.7314 10.5 70.9114 10.5H74.1086ZM74.0314 15.0343C74.2768 15.0343 74.5198 14.9859 74.7465 14.8921C74.9732 14.7981 75.1792 14.6605 75.3527 14.487C75.5262 14.3135 75.6638 14.1075 75.7578 13.8808C75.8516 13.6541 75.9 13.4111 75.9 13.1657C75.9 12.9203 75.8516 12.6773 75.7578 12.4506C75.6638 12.224 75.5262 12.0179 75.3527 11.8444C75.1792 11.6709 74.9732 11.5333 74.7465 11.4393C74.5198 11.3455 74.2768 11.2971 74.0314 11.2971H71.46V15.0343H74.0314Z" fill="#DAC5A7"/>
<path id="Vector_7" d="M83.4944 10.3285C84.1562 10.2555 84.8238 10.3978 85.3982 10.7344C85.9724 11.0711 86.4232 11.584 86.6829 12.1971C86.7515 12.3342 86.6829 12.4456 86.5458 12.5142L86.1686 12.6856C86.0144 12.7456 85.9543 12.7371 85.8601 12.5742C85.6658 12.1192 85.332 11.7378 84.9067 11.4851C84.4814 11.2324 83.9868 11.1215 83.4944 11.1685C82.0458 11.1685 81.2572 11.7428 81.2572 12.7713C81.2488 13.0857 81.3543 13.3925 81.5545 13.6351C81.7545 13.8777 82.0356 14.0397 82.3458 14.0913C82.8068 14.2417 83.2848 14.3338 83.7686 14.3656C84.3543 14.3968 84.9321 14.5153 85.4829 14.7171C85.9055 14.8507 86.2689 15.1255 86.5124 15.4954C86.7558 15.8654 86.8646 16.3078 86.8201 16.7485C86.8201 18.3513 85.6544 19.3199 83.5115 19.3199C82.8086 19.4003 82.0994 19.2375 81.5021 18.8584C80.9048 18.4795 80.4553 17.9072 80.2286 17.2371C80.2135 17.2065 80.2053 17.173 80.2046 17.1389C80.204 17.1048 80.2109 17.071 80.2248 17.0399C80.2387 17.0088 80.2593 16.9811 80.2852 16.9589C80.311 16.9366 80.3414 16.9204 80.3743 16.9113L80.7515 16.7742C80.7812 16.762 80.8131 16.7562 80.8452 16.7571C80.8772 16.7579 80.9088 16.7655 80.9378 16.7792C80.9668 16.7929 80.9927 16.8124 81.0137 16.8367C81.0348 16.8609 81.0506 16.8892 81.0601 16.9199C81.2518 17.4041 81.5928 17.8147 82.0335 18.0921C82.4743 18.3695 82.992 18.4994 83.5115 18.4628C85.1315 18.4628 85.9286 17.8971 85.9286 16.7485C85.9441 16.4466 85.8515 16.1491 85.6675 15.9089C85.4839 15.6688 85.2211 15.5016 84.9258 15.4371C84.4823 15.3048 84.0249 15.2242 83.5629 15.1971L82.6372 15.0771C82.3475 15.0156 82.0614 14.9383 81.7801 14.8456C81.5022 14.7617 81.2431 14.6249 81.0172 14.4428C80.7898 14.2369 80.6106 13.9835 80.492 13.7006C80.3736 13.4176 80.3187 13.1121 80.3315 12.8056C80.3915 11.3056 81.5144 10.3285 83.4944 10.3285Z" fill="#DAC5A7"/>
<path id="Vector_8" d="M91.44 16.1914C91.476 16.7976 91.7426 17.367 92.1848 17.7833C92.6271 18.1996 93.2117 18.4314 93.8186 18.4314C94.4254 18.4314 95.01 18.1996 95.4523 17.7833C95.8946 17.367 96.1603 16.7976 96.1971 16.1914V10.7486C96.1971 10.56 96.2571 10.5 96.4457 10.5H96.84C97.0286 10.5 97.0886 10.56 97.0886 10.7486V16.1829C97.0886 18.1286 95.94 19.3029 93.8228 19.3029C91.7057 19.3029 90.5571 18.1286 90.5571 16.1829V10.7486C90.5571 10.56 90.6171 10.5 90.7971 10.5H91.2C91.38 10.5 91.44 10.56 91.44 10.7486V16.1914Z" fill="#DAC5A7"/>
<path id="Vector_9" d="M108.917 10.5C109.106 10.5 109.166 10.56 109.166 10.7486V18.8743C109.166 19.0629 109.106 19.1229 108.917 19.1229H108.557C108.377 19.1229 108.317 19.0629 108.317 18.8743V13.9286C108.317 13.209 108.366 12.4902 108.463 11.7771H108.411C108.144 12.4292 107.831 13.0621 107.477 13.6714L105.634 16.92C105.612 16.9764 105.573 17.0246 105.522 17.0583C105.471 17.0919 105.412 17.1094 105.351 17.1086H105.111C105.05 17.1089 104.99 17.0912 104.937 17.0577C104.886 17.0242 104.845 16.9764 104.82 16.92L102.951 13.6371C102.62 13.0365 102.333 12.4119 102.094 11.7686H102.043C102.13 12.4881 102.177 13.2123 102.18 13.9371V18.8743C102.18 19.0629 102.12 19.1229 101.931 19.1229H101.597C101.409 19.1229 101.349 19.0629 101.349 18.8743V10.7486C101.349 10.56 101.409 10.5 101.597 10.5H101.906C101.976 10.4935 102.047 10.5088 102.108 10.5441C102.17 10.5795 102.219 10.6329 102.249 10.6971L105.249 16.0286L108.231 10.7486C108.326 10.5686 108.377 10.5429 108.566 10.5429L108.917 10.5Z" fill="#DAC5A7"/>
<path id="Vector_10" d="M10.9114 17.8201V24.0172C10.9114 24.2548 10.8171 24.4827 10.6491 24.6506C10.4812 24.8186 10.2533 24.913 10.0157 24.913C9.77822 24.913 9.55039 24.8186 9.38239 24.6506C9.21439 24.4827 9.12002 24.2548 9.12002 24.0172V17.8287C9.36945 18.0108 9.66842 18.1125 9.97716 18.1201C10.3137 18.1297 10.6434 18.0238 10.9114 17.8201ZM18.54 16.0287C18.3127 16.0287 18.0946 16.119 17.9339 16.2797C17.7732 16.4404 17.6829 16.6585 17.6829 16.8858V17.9658C17.6829 18.2034 17.7772 18.4312 17.9452 18.5992C18.1132 18.7672 18.341 18.8615 18.5786 18.8615C18.8162 18.8615 19.044 18.7672 19.2119 18.5992C19.3799 18.4312 19.4743 18.2034 19.4743 17.9658V16.9287C19.481 16.8058 19.4611 16.6828 19.416 16.5683C19.3709 16.4538 19.3018 16.3503 19.213 16.2649C19.1244 16.1795 19.0184 16.1142 18.9023 16.0734C18.7862 16.0327 18.6626 16.0174 18.54 16.0287ZM7.1743 20.1687C6.86588 20.1594 6.5673 20.0579 6.31716 19.8772V26.0915C6.31716 26.3302 6.41198 26.5592 6.58077 26.728C6.74955 26.8967 6.97846 26.9915 7.21716 26.9915C7.45586 26.9915 7.68477 26.8967 7.85355 26.728C8.02234 26.5592 8.11716 26.3302 8.11716 26.0915V19.9201C7.83726 20.101 7.50701 20.1881 7.1743 20.1687ZM15.7457 14.1687C15.6296 14.1628 15.5135 14.1808 15.4045 14.2212C15.2956 14.2617 15.196 14.3239 15.1117 14.404C15.0275 14.4843 14.9606 14.5807 14.9148 14.6876C14.8691 14.7945 14.8456 14.9096 14.8457 15.0258V19.8001C14.8457 20.0388 14.9405 20.2678 15.1093 20.4365C15.2782 20.6053 15.507 20.7001 15.7457 20.7001C15.9844 20.7001 16.2134 20.6053 16.3822 20.4365C16.5509 20.2678 16.6457 20.0388 16.6457 19.8001V15.0858C16.6526 14.9621 16.6325 14.8384 16.5869 14.7232C16.5413 14.608 16.4714 14.5041 16.3817 14.4185C16.2921 14.333 16.185 14.2678 16.0678 14.2277C15.9507 14.1875 15.8261 14.1732 15.7029 14.1858L15.7457 14.1687ZM12.9 16.003C12.5771 16.0007 12.2629 15.899 12 15.7115V21.943C12 22.1817 12.0948 22.4106 12.2636 22.5794C12.4324 22.7482 12.6613 22.843 12.9 22.843C13.1387 22.843 13.3676 22.7482 13.5364 22.5794C13.7052 22.4106 13.8 22.1817 13.8 21.943V15.7201C13.5281 15.9226 13.1962 16.0282 12.8572 16.0201L12.9 16.003ZM5.22859 20.7772V3.36868C5.22633 3.15647 5.14045 2.95374 4.98959 2.80449C4.83873 2.65523 4.63509 2.57152 4.42287 2.57153H4.2343C4.02209 2.57152 3.81844 2.65523 3.66759 2.80449C3.51673 2.95374 3.43084 3.15647 3.42859 3.36868V20.7772C3.42859 20.9909 3.51348 21.1959 3.66458 21.347C3.81567 21.4981 4.02062 21.583 4.2343 21.583H4.42287C4.63657 21.583 4.8415 21.4981 4.9926 21.347C5.14371 21.1959 5.22859 20.9909 5.22859 20.7772ZM7.26859 19.5087H7.08002C6.86633 19.5087 6.66139 19.4238 6.51029 19.2727C6.35919 19.1216 6.2743 18.9166 6.2743 18.703V5.44296C6.27657 5.23077 6.36244 5.02802 6.5133 4.87877C6.66416 4.72952 6.86781 4.64581 7.08002 4.64582H7.26859C7.4808 4.64581 7.68445 4.72952 7.83531 4.87877C7.98616 5.02802 8.07205 5.23077 8.0743 5.44296V18.7201C8.0743 18.9338 7.98941 19.1387 7.83831 19.2898C7.68722 19.441 7.48227 19.5258 7.26859 19.5258V19.5087ZM10.1057 17.4687H9.90859C9.69722 17.4687 9.49442 17.3847 9.34493 17.2352C9.19545 17.0857 9.11145 16.883 9.11145 16.6715V7.5001C9.11033 7.3947 9.13013 7.29012 9.16965 7.19242C9.20916 7.09471 9.2677 7.00583 9.34185 6.93089C9.41599 6.85596 9.50427 6.79648 9.60156 6.75588C9.69885 6.71529 9.80316 6.69438 9.90859 6.69439H10.1057C10.318 6.69665 10.5207 6.78253 10.6699 6.93339C10.8192 7.08424 10.9029 7.28789 10.9029 7.5001V16.6715C10.9029 16.883 10.8189 17.0857 10.6694 17.2352C10.5199 17.3847 10.3172 17.4687 10.1057 17.4687ZM12.9429 15.3687H12.7629C12.5506 15.3687 12.347 15.285 12.1961 15.1357C12.0453 14.9865 11.9594 14.7838 11.9572 14.5715V9.63439C11.9501 9.52433 11.9657 9.41402 12.0031 9.31022C12.0404 9.2065 12.0987 9.11145 12.1742 9.03113C12.2497 8.95073 12.3409 8.88679 12.4422 8.84308C12.5434 8.79945 12.6526 8.77699 12.7629 8.77725H12.9514C13.1651 8.77725 13.3701 8.8621 13.5212 9.01322C13.6723 9.16433 13.7572 9.36928 13.7572 9.58296V14.5544C13.7583 14.6609 13.7383 14.7666 13.6983 14.8654C13.6583 14.9641 13.5992 15.0539 13.5242 15.1297C13.4493 15.2054 13.3601 15.2655 13.2617 15.3065C13.1634 15.3476 13.058 15.3687 12.9514 15.3687H12.9429ZM15.7886 13.5258H15.6C15.3863 13.5258 15.1814 13.441 15.0303 13.2898C14.8792 13.1387 14.7943 12.9338 14.7943 12.7201V11.443C14.7965 11.2307 14.8824 11.028 15.0333 10.8788C15.1841 10.7295 15.3878 10.6458 15.6 10.6458H15.7886C16.0008 10.6458 16.2045 10.7295 16.3553 10.8788C16.5062 11.028 16.5921 11.2307 16.5943 11.443V12.7201C16.5943 12.9323 16.5106 13.136 16.3613 13.2868C16.2121 13.4377 16.0094 13.5236 15.7972 13.5258H15.7886Z" fill="#DAC5A7"/>
</g>
</svg>
