<svg width="21" height="20" viewBox="0 0 21 20" fill="none" xmlns="http://www.w3.org/2000/svg">
<g id="ph:behance-logo-light">
<path id="Vector" d="M13.1563 6.25C13.1563 6.12568 13.2056 6.00645 13.2935 5.91854C13.3815 5.83064 13.5007 5.78125 13.625 5.78125H18.625C18.7493 5.78125 18.8686 5.83064 18.9565 5.91854C19.0444 6.00645 19.0938 6.12568 19.0938 6.25C19.0938 6.37432 19.0444 6.49355 18.9565 6.58146C18.8686 6.66936 18.7493 6.71875 18.625 6.71875H13.625C13.5007 6.71875 13.3815 6.66936 13.2935 6.58146C13.2056 6.49355 13.1563 6.37432 13.1563 6.25ZM19.7188 11.875C19.7188 11.9993 19.6694 12.1185 19.5815 12.2065C19.4936 12.2944 19.3743 12.3438 19.25 12.3438H13.5078C13.6193 12.9569 13.9422 13.5116 14.4204 13.9113C14.8986 14.311 15.5018 14.5303 16.125 14.5312C16.474 14.5334 16.8198 14.4654 17.1419 14.3312C17.464 14.197 17.7558 13.9993 18 13.75C18.0889 13.6636 18.208 13.6153 18.332 13.6153C18.456 13.6153 18.5751 13.6636 18.6641 13.75C18.7087 13.793 18.7442 13.8446 18.7685 13.9016C18.7928 13.9587 18.8053 14.02 18.8053 14.082C18.8053 14.144 18.7928 14.2054 18.7685 14.2624C18.7442 14.3195 18.7087 14.3711 18.6641 14.4141C18.0756 15.0015 17.3017 15.3668 16.4741 15.4475C15.6466 15.5283 14.8166 15.3196 14.1257 14.8571C13.4348 14.3945 12.9256 13.7066 12.685 12.9107C12.4444 12.1148 12.4872 11.2601 12.8062 10.4922C13.1251 9.72433 13.7005 9.09082 14.4342 8.69963C15.1679 8.30843 16.0146 8.18376 16.8299 8.34686C17.6453 8.50996 18.3788 8.95074 18.9056 9.59408C19.4323 10.2374 19.7197 11.0435 19.7188 11.875ZM18.7422 11.4062C18.6353 10.7897 18.3141 10.2306 17.8353 9.82772C17.3565 9.4248 16.7508 9.20387 16.125 9.20387C15.4992 9.20387 14.8935 9.4248 14.4147 9.82772C13.9359 10.2306 13.6147 10.7897 13.5078 11.4062H18.7422ZM11.2813 12.3438C11.2813 13.1726 10.952 13.9674 10.366 14.5535C9.77991 15.1395 8.98505 15.4688 8.15625 15.4688H3C2.87568 15.4688 2.75645 15.4194 2.66854 15.3315C2.58064 15.2435 2.53125 15.1243 2.53125 15V5C2.53125 4.87568 2.58064 4.75645 2.66854 4.66854C2.75645 4.58064 2.87568 4.53125 3 4.53125H7.21875C7.78119 4.53117 8.33073 4.69972 8.7964 5.01514C9.26207 5.33055 9.62247 5.77834 9.83106 6.30066C10.0397 6.82299 10.0869 7.39586 9.96657 7.94528C9.84627 8.4947 9.56402 8.99544 9.15625 9.38281C9.77568 9.59203 10.3139 9.99026 10.6951 10.5214C11.0763 11.0526 11.2813 11.6899 11.2813 12.3438ZM3.46875 9.21875H7.21875C7.71603 9.21875 8.19295 9.02121 8.54458 8.66958C8.89621 8.31794 9.09375 7.84103 9.09375 7.34375C9.09375 6.84647 8.89621 6.36956 8.54458 6.01792C8.19295 5.66629 7.71603 5.46875 7.21875 5.46875H3.46875V9.21875ZM10.3438 12.3438C10.3417 11.7642 10.1106 11.209 9.70077 10.7992C9.29098 10.3894 8.73578 10.1583 8.15625 10.1562H3.46875V14.5312H8.15625C8.73578 14.5292 9.29098 14.2981 9.70077 13.8883C10.1106 13.4785 10.3417 12.9233 10.3438 12.3438Z" fill="#DAC5A7"/>
</g>
</svg>
