<svg width="21" height="20" viewBox="0 0 21 20" fill="none" xmlns="http://www.w3.org/2000/svg">
<g id="ph:dribbble-logo-light">
<path id="Vector" d="M18.4688 10.0547V10C18.4695 8.81557 18.2054 7.64593 17.6958 6.57671C17.1862 5.50748 16.444 4.56572 15.5234 3.82034L15.4844 3.78128L15.4453 3.75003C14.039 2.63376 12.2955 2.0278 10.5 2.03128C9.30643 2.0282 8.12795 2.2981 7.05469 2.82034L6.96094 2.8594C5.87231 3.4023 4.92169 4.18609 4.18122 5.15126C3.44076 6.11644 2.92993 7.23762 2.6875 8.42971V8.44534C2.58318 8.95698 2.53083 9.47786 2.53125 10C2.53155 11.2379 2.82052 12.4587 3.3752 13.5653C3.92988 14.672 4.73499 15.634 5.72657 16.375L5.80469 16.4375H5.82032C7.17871 17.4306 8.81731 17.9668 10.5 17.9688C11.4023 17.9715 12.2983 17.8182 13.1484 17.5157L13.1953 17.5C14.7265 16.9462 16.052 15.938 16.9944 14.6102C17.9368 13.2824 18.4512 11.6985 18.4688 10.0703V10.0547ZM17.5156 9.55471C17.2656 9.53909 17.0078 9.53128 16.75 9.53128C15.5557 9.52986 14.3671 9.69553 13.2188 10.0235C12.9295 9.14666 12.5526 8.30124 12.0938 7.50003L12.0547 7.44534C13.2495 6.74142 14.3253 5.85282 15.2422 4.81253C16.5869 6.03819 17.4022 7.73879 17.5156 9.55471ZM14.5078 4.22659C13.6584 5.19097 12.6585 6.01148 11.5469 6.65628C10.6481 5.3616 9.52335 4.2395 8.22656 3.34378C9.2696 2.98913 10.3813 2.88425 11.4723 3.03758C12.5632 3.19091 13.603 3.59817 14.5078 4.22659ZM7.19531 3.7969C8.57845 4.6496 9.7744 5.77379 10.7109 7.10159C9.08398 7.87939 7.30333 8.2825 5.5 8.28128C4.90382 8.28008 4.30852 8.23569 3.71875 8.14846C3.97215 7.22497 4.41113 6.36281 5.00886 5.61463C5.6066 4.86645 6.35056 4.24795 7.19531 3.7969ZM3.46875 10C3.46986 9.68912 3.49074 9.3786 3.53125 9.07034C4.18313 9.16666 4.84105 9.21627 5.5 9.21878C7.48564 9.22276 9.44539 8.76824 11.2266 7.89065L11.2813 7.97659C11.7107 8.71662 12.0615 9.49952 12.3281 10.3125C11.6212 10.5651 10.9387 10.8815 10.2891 11.2578C8.53884 12.2606 7.04836 13.6601 5.9375 15.3438C5.16389 14.6847 4.54251 13.8656 4.11629 12.943C3.69006 12.0204 3.46913 11.0163 3.46875 10ZM6.6875 15.9063C8.10515 13.7577 10.1675 12.1138 12.5781 11.211C12.8032 12.1368 12.916 13.0863 12.9141 14.0391C12.9175 14.9355 12.8179 15.8294 12.6172 16.7032C11.6312 17.0157 10.5883 17.1063 9.56314 16.9685C8.53801 16.8307 7.55602 16.468 6.6875 15.9063ZM13.6641 16.2813C13.7888 15.5404 13.8516 14.7904 13.8516 14.0391C13.8526 12.9887 13.7267 11.9421 13.4766 10.9219C14.542 10.6228 15.6433 10.4703 16.75 10.4688C17.0078 10.4688 17.2578 10.4766 17.5156 10.4922C17.429 11.7078 17.0286 12.8802 16.3536 13.8949C15.6785 14.9095 14.7518 15.7318 13.6641 16.2813Z" fill="#DAC5A7"/>
</g>
</svg>
