<svg width="21" height="20" viewBox="0 0 21 20" fill="none" xmlns="http://www.w3.org/2000/svg">
<g id="ph:instagram-logo-light">
<path id="Vector" d="M10.5 6.40625C9.78922 6.40625 9.09441 6.61702 8.50342 7.01191C7.91243 7.40679 7.45181 7.96806 7.17981 8.62473C6.90781 9.2814 6.83664 10.004 6.9753 10.7011C7.11397 11.3982 7.45624 12.0386 7.95884 12.5412C8.46143 13.0438 9.10178 13.386 9.79889 13.5247C10.496 13.6634 11.2186 13.5922 11.8753 13.3202C12.5319 13.0482 13.0932 12.5876 13.4881 11.9966C13.883 11.4056 14.0938 10.7108 14.0938 10C14.0938 9.04688 13.7151 8.13279 13.0412 7.45884C12.3672 6.78488 11.4531 6.40625 10.5 6.40625ZM10.5 12.6562C9.97464 12.6562 9.46108 12.5005 9.02427 12.2086C8.58745 11.9167 8.24699 11.5019 8.04595 11.0165C7.8449 10.5311 7.7923 9.99705 7.89479 9.48179C7.99728 8.96653 8.25026 8.49323 8.62175 8.12175C8.99323 7.75026 9.46653 7.49728 9.98179 7.39479C10.4971 7.2923 11.0311 7.3449 11.5165 7.54595C12.0019 7.74699 12.4167 8.08745 12.7086 8.52427C13.0005 8.96108 13.1562 9.47464 13.1562 10C13.1542 10.7038 12.8737 11.3783 12.376 11.876C11.8783 12.3737 11.2038 12.6542 10.5 12.6562ZM13.9375 2.34375H7.0625C5.94362 2.34375 4.87056 2.78822 4.07939 3.57939C3.28822 4.37056 2.84375 5.44362 2.84375 6.5625V13.4375C2.84375 14.5564 3.28822 15.6294 4.07939 16.4206C4.87056 17.2118 5.94362 17.6562 7.0625 17.6562H13.9375C15.0564 17.6562 16.1294 17.2118 16.9206 16.4206C17.7118 15.6294 18.1562 14.5564 18.1562 13.4375V6.5625C18.1562 5.44362 17.7118 4.37056 16.9206 3.57939C16.1294 2.78822 15.0564 2.34375 13.9375 2.34375ZM17.2188 13.4375C17.2188 14.3077 16.873 15.1423 16.2577 15.7577C15.6423 16.373 14.8077 16.7188 13.9375 16.7188H7.0625C6.19226 16.7188 5.35766 16.373 4.74231 15.7577C4.12695 15.1423 3.78125 14.3077 3.78125 13.4375V6.5625C3.78125 5.69226 4.12695 4.85766 4.74231 4.24231C5.35766 3.62695 6.19226 3.28125 7.0625 3.28125H13.9375C14.8077 3.28125 15.6423 3.62695 16.2577 4.24231C16.873 4.85766 17.2188 5.69226 17.2188 6.5625V13.4375ZM15.3438 5.9375C15.3438 6.09202 15.2979 6.24306 15.2121 6.37154C15.1262 6.50002 15.0042 6.60015 14.8615 6.65928C14.7187 6.71841 14.5616 6.73388 14.4101 6.70374C14.2585 6.67359 14.1193 6.59919 14.0101 6.48993C13.9008 6.38067 13.8264 6.24146 13.7963 6.08991C13.7661 5.93837 13.7816 5.78128 13.8407 5.63853C13.8998 5.49577 14 5.37376 14.1285 5.28791C14.2569 5.20207 14.408 5.15625 14.5625 5.15625C14.7697 5.15625 14.9684 5.23856 15.1149 5.38507C15.2614 5.53159 15.3438 5.7303 15.3438 5.9375Z" fill="#DAC5A7"/>
</g>
</svg>
