<svg width="21" height="20" viewBox="0 0 21 20" fill="none" xmlns="http://www.w3.org/2000/svg">
<g id="ph:twitter-logo-light">
<path id="Vector" d="M19.6797 5.44535C19.6444 5.36028 19.5848 5.2875 19.5084 5.23609C19.432 5.18468 19.3421 5.15692 19.25 5.15628H16.7813C16.4761 4.59583 16.0273 4.12674 15.4808 3.79721C14.9343 3.46769 14.31 3.28961 13.6719 3.28128C12.7132 3.27712 11.7918 3.65291 11.1095 4.32643C10.4272 4.99995 10.0395 5.91634 10.0313 6.87503V7.55472C6.71877 6.76566 3.98439 4.07035 3.95314 4.04691C3.89292 3.98745 3.81771 3.94541 3.73552 3.92525C3.65332 3.90508 3.5672 3.90755 3.48629 3.93238C3.40539 3.95721 3.33271 4.00349 3.27598 4.06629C3.21925 4.1291 3.18058 4.20609 3.16408 4.2891C2.48439 8.00785 3.60158 10.4922 4.65627 11.9219C5.21565 12.6874 5.90279 13.3508 6.68752 13.8828C5.47658 15.3516 3.48439 16.1172 3.46096 16.125C3.3944 16.1495 3.33439 16.1891 3.28561 16.2406C3.23683 16.2921 3.20058 16.3541 3.17971 16.4219C3.15754 16.4881 3.15094 16.5584 3.16043 16.6275C3.16991 16.6966 3.19522 16.7626 3.23439 16.8203C3.31252 16.9375 4.07814 17.9688 6.75002 17.9688C12.1953 17.9688 16.75 13.7578 17.1875 8.3516L19.5781 5.95316C19.6459 5.88967 19.6921 5.80659 19.7103 5.71553C19.7285 5.62448 19.7178 5.53001 19.6797 5.44535ZM16.3985 7.81253C16.3172 7.89361 16.2697 8.0025 16.2656 8.11722C15.9453 13.1172 11.7656 17.0313 6.75002 17.0313C5.66408 17.0313 4.96877 16.8438 4.55471 16.6563C5.43752 16.211 6.88283 15.336 7.76565 14.0078C7.80082 13.9528 7.82448 13.8912 7.83522 13.8267C7.84596 13.7623 7.84356 13.6963 7.82815 13.6328C7.81149 13.5679 7.78131 13.5072 7.73957 13.4547C7.69784 13.4021 7.64549 13.359 7.58596 13.3282C7.57033 13.3282 6.39846 12.7188 5.38283 11.3282C4.17189 9.67191 3.69533 7.64847 3.96096 5.31253C5.10158 6.28128 7.56252 8.10941 10.4219 8.58597C10.4892 8.59875 10.5585 8.59638 10.6248 8.57901C10.691 8.56164 10.7526 8.52972 10.805 8.48558C10.8573 8.44143 10.8992 8.38616 10.9276 8.32379C10.9559 8.26143 10.97 8.19353 10.9688 8.12503V6.87503C10.975 6.16705 11.2611 5.49029 11.7646 4.99259C12.2682 4.49488 12.9483 4.21669 13.6563 4.21878C14.1678 4.22617 14.6665 4.38028 15.0931 4.66281C15.5197 4.94533 15.8561 5.34438 16.0625 5.81253C16.0982 5.89675 16.1581 5.96846 16.2346 6.01854C16.3111 6.06863 16.4008 6.09482 16.4922 6.09378H18.1172L16.3985 7.81253Z" fill="#DAC5A7"/>
</g>
</svg>
